<?xml version="1.0" standalone="no"?>
<!DOCTYPE svg PUBLIC "-//W3C//DTD SVG 20010904//EN"
 "http://www.w3.org/TR/2001/REC-SVG-20010904/DTD/svg10.dtd">
<svg version="1.0" xmlns="http://www.w3.org/2000/svg"
 width="700.000000pt" height="700.000000pt" viewBox="0 0 700.000000 700.000000"
 preserveAspectRatio="xMidYMid meet">
<metadata>
Created by potrace 1.11, written by Peter Selinger 2001-2013
</metadata>
<g transform="translate(0.000000,700.000000) scale(0.100000,-0.100000)"
fill="#000000" stroke="none">
<path d="M4447 5404 c-1 -2 -41 -5 -87 -9 -47 -3 -107 -8 -135 -10 -27 -3 -86
-7 -130 -10 -44 -3 -107 -8 -140 -10 -33 -3 -87 -8 -120 -10 -33 -3 -80 -7
-105 -10 -25 -2 -79 -7 -120 -10 -149 -12 -301 -24 -370 -30 -30 -3 -84 -7
-120 -10 -36 -3 -90 -7 -120 -10 -30 -3 -86 -7 -125 -10 -38 -3 -90 -8 -115
-10 -57 -6 -181 -16 -240 -20 -79 -5 -204 -16 -240 -20 -19 -2 -73 -7 -120
-10 -47 -4 -101 -8 -120 -10 -19 -2 -73 -6 -120 -10 -47 -3 -101 -8 -120 -10
-19 -2 -71 -6 -115 -10 -44 -3 -100 -8 -125 -10 -25 -3 -70 -7 -100 -10 -177
-13 -217 -16 -240 -20 -14 -2 -69 -6 -123 -10 -54 -4 -106 -8 -115 -10 -9 -1
-60 -6 -112 -10 -102 -7 -147 -11 -225 -20 -27 -3 -81 -7 -120 -10 -194 -14
-303 -33 -336 -56 -29 -20 -79 -87 -93 -124 -5 -11 -11 -49 -14 -85 -8 -84 -9
-2541 -1 -2643 5 -65 11 -84 36 -120 40 -56 99 -84 193 -92 41 -3 91 -8 110
-10 19 -3 64 -7 100 -10 36 -3 81 -8 100 -10 35 -5 133 -13 225 -20 112 -9
213 -16 255 -20 25 -2 74 -7 110 -10 36 -3 94 -8 130 -11 65 -5 66 -5 90 27
14 18 30 37 35 43 6 6 22 27 35 46 14 19 30 42 37 50 7 8 100 137 207 285 107
149 202 279 211 290 9 11 37 48 63 82 53 69 107 105 157 105 76 0 107 -36 386
-442 74 -107 152 -221 174 -253 22 -32 47 -68 55 -82 8 -13 55 -82 104 -154
l88 -129 52 -7 c28 -4 62 -8 76 -10 14 -2 59 -7 100 -10 41 -3 91 -8 110 -10
33 -4 78 -8 208 -20 109 -10 159 -14 232 -20 68 -5 103 -8 225 -19 22 -2 81
-7 130 -11 50 -3 108 -8 130 -10 277 -27 368 -26 426 4 80 42 126 119 138 235
12 111 14 388 14 1711 0 1446 -3 1624 -31 1687 -48 108 -120 152 -255 153 -48
1 -89 0 -90 -1z m-789 -1070 c18 -4 35 -11 38 -15 3 -5 12 -9 20 -9 26 0 124
-69 185 -131 113 -114 189 -264 220 -432 12 -68 15 -323 5 -402 -34 -247 -219
-511 -415 -591 -57 -23 -80 -27 -168 -27 -100 0 -105 1 -186 41 -162 80 -303
260 -364 466 -33 109 -43 275 -29 445 32 366 319 685 601 666 33 -3 75 -7 93
-11z m-2524 -124 c155 -75 290 -299 313 -520 22 -211 -1 -400 -65 -545 -114
-258 -311 -371 -517 -294 -279 104 -430 599 -299 987 95 284 265 428 472 401
29 -4 72 -17 96 -29z"/>
<path d="M4905 5331 l46 -58 6 -114 c7 -120 10 -2894 3 -3159 -2 -85 -8 -183
-13 -219 -8 -62 -36 -133 -57 -146 -5 -3 -14 -14 -20 -25 -9 -17 -7 -18 28 -8
175 46 677 195 992 293 47 15 90 28 95 29 6 1 26 7 45 13 19 7 89 28 155 48
306 94 346 108 377 133 66 53 111 109 151 187 56 112 67 191 68 510 1 290 4
268 -28 261 -34 -8 -61 -13 -104 -20 -19 -3 -45 -8 -59 -11 -14 -3 -36 -7 -50
-10 -14 -3 -52 -10 -85 -15 -33 -6 -80 -15 -105 -20 -167 -35 -190 -35 -243
-1 -84 54 -82 42 -82 546 0 242 2 458 4 480 6 55 25 89 66 121 46 35 76 35
255 3 36 -6 74 -13 85 -14 11 -2 47 -8 80 -14 33 -6 74 -13 90 -16 17 -3 39
-7 50 -10 59 -12 114 -15 119 -6 9 14 9 366 1 505 -8 125 -25 174 -79 226 -67
66 -160 101 -566 215 -91 26 -201 57 -245 70 -44 13 -163 47 -265 76 -102 28
-248 69 -325 91 -77 21 -147 41 -155 43 -8 1 -72 19 -142 39 -71 20 -130 36
-134 36 -3 0 15 -26 41 -59z"/>
<path d="M6177 4010 l-37 -32 2 -405 3 -405 41 -29 c50 -37 77 -38 224 -9 30
6 69 13 85 16 62 10 272 56 320 70 106 31 109 38 113 324 6 315 -4 355 -98
393 -29 13 -148 39 -275 61 -35 7 -70 14 -105 21 -56 12 -76 15 -155 21 -82 6
-82 6 -118 -26z"/>
</g>
</svg>
