<?xml version="1.0" encoding="utf-8"?>
<svg version="1.1" xmlns="http://www.w3.org/2000/svg" x="0px" y="0px" viewBox="0 0 1000 1000" enable-background="new 0 0 1000 1000" xml:space="preserve">
<g>
    <g transform="translate(0.000000,511.000000) scale(0.100000,-0.100000)">
        <path fill="white" d="M5717.8,2778.8c-357.9-30.6-1381.8-114.8-2277.5-189.5c-2329.1-193.3-2953-246.9-3066-269.8c-82.3-15.3-112.9-34.4-166.5-95.7c-36.4-42.1-74.6-114.8-86.1-160.8c-28.7-112.9-28.7-3835.3-1.9-3936.8c28.7-99.5,105.3-183.7,187.6-206.7c53.6-15.3,1590.4-153.1,1701.4-153.1c11.5,0,216.3,275.6,453.6,610.5c237.3,336.8,459.3,633.5,491.9,660.3c107.2,90,204.8,88,302.4-3.8c30.6-28.7,269.9-365.5,530.1-750.2c260.3-384.7,474.6-700.4,474.6-702.4c9.6-11.5,1714.8-164.6,2109-189.5c187.6-11.5,222-7.7,298.6,26.8c107.2,45.9,176.1,153.1,204.8,317.7c28.7,158.8,28.7,4660.2,0,4794.2c-44,202.9-178,310-390.4,306.2C6420.2,2834.3,6075.7,2809.4,5717.8,2778.8z M5352.3,1251.6c160.8-78.5,331.1-260.3,421-445.9c109.1-227.7,134-354.1,134-646.9c0-189.5-7.7-290.9-34.4-382.8c-90-327.3-287.1-595.2-524.4-711.9c-111-55.5-145.5-63.2-281.4-63.2c-135.9,0-170.3,7.7-281.3,63.2c-237.3,116.7-434.4,384.7-526.3,711.9c-51.7,191.4-47.8,591.4,9.6,794.2c57.4,199,143.5,356,269.9,493.8C4780,1322.4,5071,1391.3,5352.3,1251.6z M1628,1123.3c183.7-91.9,338.7-313.9,417.2-600.9c47.8-172.2,47.8-555,0-727.3c-111-403.8-350.2-650.7-633.5-650.7c-547.4,0-867,932-547.4,1598.1c137.8,289,319.6,430.6,547.4,430.6C1499.7,1173.1,1553.3,1159.7,1628,1123.3z"/>
        <path fill="white" d="M6973.3,2767.3c28.7-28.7,67-78.5,86.1-111c34.5-53.6,36.4-141.6,36.4-2507.1c0-2677.4,3.8-2570.3-111-2702.3c-30.7-34.4-45.9-63.2-34.5-63.2c36.4,0,2264.1,667.9,2344.5,702.4c164.6,72.7,333,313.9,375.1,539.7c9.6,55.5,19.1,279.4,19.1,495.7v392.3l-57.4-13.4c-32.5-5.8-231.6-42.1-442.1-82.3l-384.7-70.8l-70.8,38.3c-132,70.8-135.9,89.9-135.9,826.8c0,711.9,3.9,744.5,105.3,822.9c28.7,23,80.4,42.1,112.9,42.1c32.5,0,235.4-34.4,451.7-74.6c216.3-40.2,398.1-70.8,407.7-65.1c22.9,13.4,15.3,801.9-9.6,899.5c-28.7,116.7-128.3,214.3-285.2,279.4c-67,28.7-635.4,193.3-1261.2,367.5c-625.8,174.2-1152.1,321.5-1167.4,327.3C6937,2817.1,6946.5,2797.9,6973.3,2767.3z"/>
        <path fill="white" d="M8818.2,838.2l-47.9-45.9V218.1v-572.2l59.3-49.7c32.6-26.8,76.6-49.8,99.5-49.8c82.3,0,773.2,135.9,842.1,166.5c126.3,55.5,128.2,65.1,128.2,505.3c0,532,36.4,491.9-541.6,600.9C8923.5,899.4,8879.5,901.3,8818.2,838.2z"/>
    </g>
</g>
</svg>